<svg xmlns="http://www.w3.org/2000/svg" xmlns:svg="http://www.w3.org/2000/svg" id="svg3215" width="1368.003" height="847.997" version="1.1"><metadata id="metadata3220"/><g id="layer1" transform="translate(-115.99844,-176.00155)"><g id="g3452" transform="translate(236.66667,-63.333335)"><g id="g4" transform="matrix(1.79058,0,0,1.789023,-81.275467,171.35201)"><rect style="fill:#fff" id="rect6" width="760" height="470" x="-20" y="40"/><rect style="fill:none;stroke:#000;stroke-width:4" id="rect8" width="760" height="470" x="-20" y="40"/></g><text style="font-size:48.69622803px;font-style:normal;font-weight:700;text-anchor:middle;fill:#7f7f7f;font-family:sans-serif" id="text10" x="563.278" y="305.181" font-size="27.2"><tspan id="tspan12" x="563.278" y="305.181">Executables and Libraries</tspan></text><g id="g18" transform="matrix(1.7903025,0,0,1.7903025,-81.230676,170.90817)"><rect style="fill:#fff" id="rect20" width="720" height="40" x="0" y="450"/><rect style="fill:none;stroke:#000;stroke-width:2" id="rect22" width="720" height="40" x="0" y="450"/></g><text style="font-size:42.96725845px;font-style:normal;font-weight:400;text-anchor:middle;fill:#000;font-family:sans-serif" id="text24" x="473.763" y="1030.253" font-size="24"><tspan id="tspan26" x="473.763" y="1030.253">GLib</tspan></text><g id="g32" transform="matrix(1.7903025,0,0,1.7903025,-81.230676,170.90817)"><g id="g34"><rect style="fill:#fff" id="rect36" width="140" height="80" x="120" y="100"/><rect style="fill:none;stroke:#000;stroke-width:2" id="rect38" width="140" height="80" x="120" y="100"/></g><text style="font-size:24px;font-style:normal;font-weight:400;text-anchor:middle;fill:#000;font-family:sans-serif" id="text40" x="190" y="130" font-size="24"><tspan id="tspan42" x="190" y="130">BSE -</tspan> <tspan id="tspan44" x="190" y="160">WaveTool</tspan></text></g><g id="g46" transform="matrix(1.7903025,0,0,1.7903025,-81.230676,170.90817)"><rect style="fill:#fff" id="rect48" width="570" height="80" x="0" y="370"/><rect style="fill:none;stroke:#000;stroke-width:2" id="rect50" width="570" height="80" x="0" y="370"/></g><text style="font-size:42.96725845px;font-style:normal;font-weight:400;text-anchor:middle;fill:#000;font-family:sans-serif" id="text52" x="563.278" y="955.061" font-size="24"><tspan id="tspan54" x="563.278" y="955.061">SFI - Synthesis Fusion Kit Interface</tspan></text><text style="font-size:42.96725845px;font-style:normal;font-weight:400;text-anchor:middle;fill:#000;font-family:sans-serif" id="text56" x="61.994" y="955.061" font-size="24"><tspan id="tspan58" x="61.994" y="955.061">GLib-Extra</tspan></text><g id="g60" transform="matrix(1.7903025,0,0,1.7903025,-81.230676,170.90817)"><g id="g62"><rect style="fill:#fff" id="rect64" width="100" height="270" x="0" y="100"/><rect style="fill:none;stroke:#000;stroke-width:2" id="rect66" width="100" height="270" x="0" y="100"/></g><text style="font-size:24px;font-style:normal;font-weight:400;text-anchor:middle;fill:#000;font-family:sans-serif" id="text68" x="50" y="130" font-size="24"><tspan id="tspan70" x="50" y="130">SFIDL</tspan></text></g><g id="g72" transform="matrix(1.7903025,0,0,1.7903025,-81.230676,170.90817)"><g id="g74"><rect style="fill:#fff" id="rect76" width="160" height="30" x="240" y="380"/><rect style="fill:none;stroke:#000;stroke-width:2" id="rect78" width="160" height="30" x="240" y="380"/></g><text style="font-size:24px;font-style:normal;font-weight:400;text-anchor:middle;fill:#000;font-family:sans-serif" id="text80" x="320" y="402" font-size="24"><tspan id="tspan82" x="320" y="402">Glue Layer</tspan></text></g><g id="g84" transform="matrix(1.7903025,0,0,1.7903025,-81.230676,170.90817)"><polyline style="fill:none;stroke:#000;stroke-width:2;stroke-dasharray:4" id="polyline86" points="540 379.736 540 395 409.736 395"/><polygon style="fill:none;stroke:#000;stroke-width:2" id="polygon88" points="535 382.236 540 372.236 545 382.236 540 379.736"/><polygon style="fill:none;stroke:#000;stroke-width:2" id="polygon90" points="412.236 400 402.236 395 412.236 390 409.736 395"/></g><g id="g92" transform="matrix(1.7903025,0,0,1.7903025,-81.230676,170.90817)"><polyline style="fill:none;stroke:#000;stroke-width:2;stroke-dasharray:4" id="polyline94" points="230.264 395 200 395 200 379.736"/><polygon style="fill:none;stroke:#000;stroke-width:2" id="polygon96" points="227.764 390 237.764 395 227.764 400 230.264 395"/><polygon style="fill:none;stroke:#000;stroke-width:2" id="polygon98" points="195 382.236 200 372.236 205 382.236 200 379.736"/></g><g id="g100" transform="matrix(1.7903025,0,0,1.7903025,-81.230676,170.90817)"><polyline style="fill:none;stroke:#000;stroke-width:2;stroke-dasharray:4" id="polyline102" points="430 379.736 430 395 430 395"/><polygon style="fill:none;stroke:#000;stroke-width:2" id="polygon104" points="425 382.236 430 372.236 435 382.236 430 379.736"/></g><g id="g106" transform="matrix(1.7903025,0,0,1.7903025,-81.230676,170.90817)"><g id="g108"><rect style="fill:#fff" id="rect110" width="100" height="270" x="380" y="100"/><rect style="fill:none;stroke:#000;stroke-width:2" id="rect112" width="100" height="270" x="380" y="100"/></g><text style="font-size:24px;font-style:normal;font-weight:400;text-anchor:middle;fill:#000;font-family:sans-serif" id="text114" x="430" y="130" font-size="24"><tspan id="tspan116" x="430" y="130">BSESH</tspan> <tspan id="tspan118" x="430" y="160">(JS???)</tspan></text></g><g id="g120" transform="matrix(1.7903025,0,0,1.7903025,-81.230676,170.90817)"><g id="g122"><rect style="fill:#fff" id="rect124" width="20" height="35" x="530" y="335"/><rect style="fill:none;stroke:#000;stroke-width:2" id="rect126" width="20" height="35" x="530" y="335"/></g><g id="g128"><rect style="fill:#fff" id="rect130" width="220" height="270" x="500" y="100"/><rect style="fill:none;stroke:#000;stroke-width:2" id="rect132" width="220" height="270" x="500" y="100"/></g><text style="font-size:24px;font-style:normal;font-weight:400;text-anchor:middle;fill:#000;font-family:sans-serif" id="text134" x="600" y="130" font-size="24"><tspan id="tspan136" x="600" y="130">Beast-GTK</tspan></text><g id="g138"><rect style="fill:#fff" id="rect140" width="120" height="65" x="600" y="270"/><rect style="fill:none;stroke:#000;stroke-width:2" id="rect142" width="120" height="65" x="600" y="270"/></g><text style="font-size:24px;font-style:normal;font-weight:400;text-anchor:middle;fill:#000;font-family:sans-serif" id="text144" x="660" y="310" font-size="24"><tspan id="tspan146" x="660" y="310">GXK</tspan></text></g><g id="g148" transform="matrix(1.7903025,0,0,1.7903025,-81.230676,170.90817)"><g id="g150"><rect style="fill:#fff" id="rect152" width="150" height="115" x="570" y="335"/><rect style="fill:none;stroke:#000;stroke-width:2" id="rect154" width="150" height="115" x="570" y="335"/></g><text style="font-size:24px;font-style:normal;font-weight:400;text-anchor:middle;fill:#000;font-family:sans-serif" id="text156" x="650" y="400" font-size="24"><tspan id="tspan158" x="650" y="400">GDK/GTK+</tspan></text></g><line style="fill:none;stroke:#000;stroke-width:3.58060503;stroke-dasharray:10.741815" id="line160" x1="181.218" x2="181.218" y1="833.32" y2="976.544"/><g id="g162" transform="matrix(1.7903025,0,0,1.7903025,-81.230676,170.90817)"><g id="g164"><rect style="fill:#fff" id="rect166" width="20" height="25" x="190" y="345"/><rect style="fill:none;stroke:#000;stroke-width:2" id="rect168" width="20" height="25" x="190" y="345"/></g><g id="g170"><rect style="fill:#fff" id="rect172" width="240" height="190" x="120" y="180"/><rect style="fill:none;stroke:#000;stroke-width:2" id="rect174" width="240" height="190" x="120" y="180"/></g><text style="font-size:22.34259415px;font-style:normal;font-weight:400;text-anchor:middle;fill:#000;font-family:sans-serif" id="text176" x="240" y="210" font-size="24"><tspan id="tspan178" x="240" y="210" style="font-size:22.34259415px">BSE - Sound Engine</tspan></text><g id="g180"><g id="g182"><rect style="fill:#fff" id="rect184" width="160" height="30" x="150" y="250"/><rect style="fill:none;stroke:#000;stroke-width:2" id="rect186" width="160" height="30" x="150" y="250"/></g><g id="g188"><rect style="fill:#fff" id="rect190" width="160" height="30" x="140" y="240"/><rect style="fill:none;stroke:#000;stroke-width:2" id="rect192" width="160" height="30" x="140" y="240"/></g><g id="g194"><rect style="fill:#fff" id="rect196" width="160" height="30" x="130" y="230"/><rect style="fill:none;stroke:#000;stroke-width:2" id="rect198" width="160" height="30" x="130" y="230"/></g><text style="font-size:21.22546387px;font-style:normal;font-weight:400;text-anchor:middle;fill:#000;font-family:sans-serif" id="text200" x="210" y="251" font-size="24"><tspan id="tspan202" x="210" y="251" style="font-size:21.22546387px">Driver Plugins</tspan></text></g><g id="g204"><g id="g206"><rect style="fill:#fff" id="rect208" width="200" height="30" x="150" y="320"/><rect style="fill:none;stroke:#000;stroke-width:2" id="rect210" width="200" height="30" x="150" y="320"/></g><g id="g212"><rect style="fill:#fff" id="rect214" width="200" height="30" x="140" y="310"/><rect style="fill:none;stroke:#000;stroke-width:2" id="rect216" width="200" height="30" x="140" y="310"/></g><g id="g218"><rect style="fill:#fff" id="rect220" width="200" height="30" x="130" y="300"/><rect style="fill:none;stroke:#000;stroke-width:2" id="rect222" width="200" height="30" x="130" y="300"/></g><text style="font-size:21.22546387px;font-style:normal;font-weight:400;text-anchor:middle;fill:#000;font-family:sans-serif" id="text224" x="230" y="321" font-size="24"><tspan id="tspan226" x="230" y="321" style="font-size:21.22546387px">Synthesis Plugins</tspan></text></g></g></g></g></svg>